name rise37.2698peak67.6939fall79.5734.mot
datacolumns 19
datarows 17
range 1.16499500000000 1.19166600000000
endheader
time	ground_force1_vx	ground_force1_vy	ground_force1_vz	ground_force1_px	ground_force1_py	ground_force1_pz	ground_force2_vx	ground_force2_vy	ground_force2_vz	ground_force2_px	ground_force2_py	ground_force2_pz	ground_torque1_x	ground_torque1_y	ground_torque1_z	ground_torque2_x	ground_torque2_y	ground_torque2_z	
1.16499500000000	-8.09633000000000	43.26418300000000	-8.79029200000000	0.32794600000000	0.00000000000000	0.09155700000000	-46.66988400000000	780.33729400000004	-48.66726600000000	0.13924100000000	0.00000000000000	-0.08482200000000	0.00000000000000	-5.85187800000000	0.00000000000000	0.00000000000000	-18.96554900000000	0.00000000000000	
1.16666700000000	-8.79942500000000	50.76685900000000	-9.84577400000000	0.33306500000000	0.00000000000000	0.09255000000000	-47.26237600000000	777.71728900000005	-48.25334600000000	0.13836200000000	0.00000000000000	-0.08474200000000	0.00000000000000	-6.64192300000000	0.00000000000000	0.00000000000000	-18.89840400000000	0.00000000000000	
1.16833100000000	-9.32863700000000	58.38005000000000	-10.79121400000000	0.33770100000000	0.00000000000000	0.09344400000000	-47.87120000000000	775.00319700000000	-47.82410900000000	0.13747700000000	0.00000000000000	-0.08466100000000	0.00000000000000	-7.37613700000000	0.00000000000000	0.00000000000000	-18.83309700000000	0.00000000000000	
1.16999500000000	-9.66213600000000	66.00720200000001	-11.60343800000000	0.34193400000000	0.00000000000000	0.09425600000000	-48.49577400000000	772.19239900000002	-47.37945300000000	0.13658800000000	0.00000000000000	-0.08457800000000	0.00000000000000	-8.03771300000000	0.00000000000000	0.00000000000000	-18.76958200000000	0.00000000000000	
1.17166100000000	-9.78773900000000	73.57500700000000	-12.26742100000000	0.34582600000000	0.00000000000000	0.09499600000000	-49.13541100000000	769.28214600000001	-46.91928500000000	0.13569400000000	0.00000000000000	-0.08449500000000	0.00000000000000	-8.61501000000000	0.00000000000000	0.00000000000000	-18.70779600000000	0.00000000000000	
1.17333200000000	-9.70268100000000	81.03569700000000	-12.77634400000000	0.34942700000000	0.00000000000000	0.09567500000000	-49.78931900000000	766.26956600000005	-46.44352800000000	0.13479700000000	0.00000000000000	-0.08441000000000	0.00000000000000	-9.10172700000000	0.00000000000000	0.00000000000000	-18.64765500000000	0.00000000000000	
1.17499500000000	-9.41265100000000	88.36686300000000	-13.13096800000000	0.35277800000000	0.00000000000000	0.09630100000000	-50.45659700000000	763.15167399999996	-45.95211400000000	0.13389800000000	0.00000000000000	-0.08432400000000	0.00000000000000	-9.49661800000000	0.00000000000000	0.00000000000000	-18.58905700000000	0.00000000000000	
1.17666100000000	-8.93030600000000	95.56920400000000	-13.33849000000000	0.35591300000000	0.00000000000000	0.09688000000000	-51.13624100000000	759.92538200000001	-45.44499200000000	0.13299700000000	0.00000000000000	-0.08423700000000	0.00000000000000	-9.80282600000000	0.00000000000000	0.00000000000000	-18.53188100000000	0.00000000000000	
1.17833000000000	-8.27346700000000	102.66275500000000	-13.41107700000000	0.35885900000000	0.00000000000000	0.09741700000000	-51.82713800000000	756.58750799999996	-44.92212900000000	0.13209700000000	0.00000000000000	-0.08414800000000	0.00000000000000	-10.02698400000000	0.00000000000000	0.00000000000000	-18.47598500000000	0.00000000000000	
1.17999700000000	-7.46320300000000	109.68217700000000	-13.36423600000000	0.36163900000000	0.00000000000000	0.09791800000000	-52.52807200000000	753.13478899999996	-44.38350800000000	0.13119700000000	0.00000000000000	-0.08405800000000	0.00000000000000	-10.17817200000000	0.00000000000000	0.00000000000000	-18.42121000000000	0.00000000000000	
1.18166700000000	-6.52198300000000	116.67165900000001	-13.21520300000000	0.36427400000000	0.00000000000000	0.09838500000000	-53.23772300000000	749.56389300000001	-43.82913300000000	0.13030000000000	0.00000000000000	-0.08396600000000	0.00000000000000	-10.26685900000000	0.00000000000000	0.00000000000000	-18.36737900000000	0.00000000000000	
1.18333300000000	-5.47202900000000	123.67990800000000	-12.98146100000000	0.36678000000000	0.00000000000000	0.09882300000000	-53.95466800000000	745.87142900000003	-43.25903100000000	0.12940500000000	0.00000000000000	-0.08387300000000	0.00000000000000	-10.30391000000000	0.00000000000000	0.00000000000000	-18.31429300000000	0.00000000000000	
1.18500100000000	-4.33397000000000	130.75562600000001	-12.67950000000000	0.36917000000000	0.00000000000000	0.09923500000000	-54.67738600000000	742.05396599999995	-42.67324900000000	0.12851600000000	0.00000000000000	-0.08377700000000	0.00000000000000	-10.29973500000000	0.00000000000000	0.00000000000000	-18.26173800000000	0.00000000000000	
1.18666400000000	-3.12585400000000	137.94373400000001	-12.32385900000000	0.37145600000000	0.00000000000000	0.09962200000000	-55.40425600000000	738.10804499999995	-42.07186200000000	0.12763200000000	0.00000000000000	-0.08368000000000	0.00000000000000	-10.26360900000000	0.00000000000000	0.00000000000000	-18.20948300000000	0.00000000000000	
1.18833400000000	-1.86252000000000	145.28249900000000	-11.92648600000000	0.37364800000000	0.00000000000000	0.09998600000000	-56.13356600000000	734.03019600000005	-41.45496900000000	0.12675500000000	0.00000000000000	-0.08358200000000	0.00000000000000	-10.20320600000000	0.00000000000000	0.00000000000000	-18.15727700000000	0.00000000000000	
1.18999700000000	-0.55533200000000	152.80164600000001	-11.49640600000000	0.37575400000000	0.00000000000000	0.10033100000000	-56.86351300000000	729.81695400000001	-40.82269800000000	0.12588600000000	0.00000000000000	-0.08348100000000	0.00000000000000	-10.12432700000000	0.00000000000000	0.00000000000000	-18.10485600000000	0.00000000000000	
1.19166600000000	0.78778800000000	160.52139500000001	-11.03967000000000	0.37778300000000	0.00000000000000	0.10065600000000	-57.59220900000000	725.46487600000000	-40.17520600000000	0.12502600000000	0.00000000000000	-0.08337800000000	0.00000000000000	-10.03082500000000	0.00000000000000	0.00000000000000	-18.05193900000000	0.00000000000000	
